PathFileType	4	(X/Y/Z)	E:\Studenten\Marcel_BSc\Ayumi_25_09_2024\25-09-2024\static_00.trc
DataRate	CameraRate	NumFrames	NumMarkers	Units	OrigDataRate	OrigDataStartFrame	OrigNumFrames
200.0	200.0	5	62	mm	200.0	148	295	
Frame#	Time	LASI			RASI			RSACR			LSACR			USACR			LBAR			RBAR			RHEE			RMT1			RMT5			RMT2			LHEE			LMT1			LMT5			LMT2			LMMAL			LMFC			LLFC			LLMAL			LTIB4			LTIB2			LTIB3			LTIB1			RMMAL			RMFC			RLFC			RLMAL			RTIB1			RTIB2			RTIB3			RTHI1			RTHI4			RTHI3			RTHI2			LTHI1			LTHI4			LTHI3			LTHI2			FHD			LBHD			RBHD			C7			T10			CLAV			LSHO			RSHO			LRAD			LUL			LRFIN			RRAD			RUL			RUFIN			RLEP			RMEP			LLEP			LMEP			LDUPA			LMUPA			LUUPA			RDUPA			RUUPA			RMUPA			
		X1	Y1	Z1	X2	Y2	Z2	X3	Y3	Z3	X4	Y4	Z4	X5	Y5	Z5	X6	Y6	Z6	X7	Y7	Z7	X8	Y8	Z8	X9	Y9	Z9	X10	Y10	Z10	X11	Y11	Z11	X12	Y12	Z12	X13	Y13	Z13	X14	Y14	Z14	X15	Y15	Z15	X16	Y16	Z16	X17	Y17	Z17	X18	Y18	Z18	X19	Y19	Z19	X20	Y20	Z20	X21	Y21	Z21	X22	Y22	Z22	X23	Y23	Z23	X24	Y24	Z24	X25	Y25	Z25	X26	Y26	Z26	X27	Y27	Z27	X28	Y28	Z28	X29	Y29	Z29	X30	Y30	Z30	X31	Y31	Z31	X32	Y32	Z32	X33	Y33	Z33	X34	Y34	Z34	X35	Y35	Z35	X36	Y36	Z36	X37	Y37	Z37	X38	Y38	Z38	X39	Y39	Z39	X40	Y40	Z40	X41	Y41	Z41	X42	Y42	Z42	X43	Y43	Z43	X44	Y44	Z44	X45	Y45	Z45	X46	Y46	Z46	X47	Y47	Z47	X48	Y48	Z48	X49	Y49	Z49	X50	Y50	Z50	X51	Y51	Z51	X52	Y52	Z52	X53	Y53	Z53	X54	Y54	Z54	X55	Y55	Z55	X56	Y56	Z56	X57	Y57	Z57	X58	Y58	Z58	X59	Y59	Z59	X60	Y60	Z60	X61	Y61	Z61	X62	Y62	Z62	
148	0.735	133.09044	918.14734	-762.00049	128.72125	918.69745	-984.47955	308.48956	950.11267	-912.37885	307.68054	953.35797	-852.47052	296.80615	966.48712	-882.32684	1270.8407	26.299717	346.50107	1226.4327	26.280542	-1876.9377	323.06583	39.83371	-1019.6463	128.16655	43.444263	-1043.3136	165.06242	34.828613	-1113.6602	140.17387	42.69482	-1079.957	326.25195	45.845589	-745.16565	134.38237	46.328415	-736.45654	169.96461	33.42968	-662.78394	143.16095	45.906181	-698.04614	276.67862	72.975075	-778.71234	232.46262	456.95035	-829.05353	218.93231	453.98306	-721.40588	278.80164	69.14679	-700.99835	290.13647	209.65009	-691.4707	313.69995	271.01141	-691.43713	263.21683	268.15417	-684.43848	301.41171	314.33804	-687.09814	275.1662	68.345802	-994.08173	234.89885	446.53625	-935.29242	220.03297	461.29483	-1041.1764	284.64578	72.258392	-1068.5662	256.75049	319.29254	-1082.6666	307.18057	314.10611	-1077.1578	276.28888	256.18906	-1081.292	240.87968	783.828	-1060.0129	242.11028	635.08075	-1064.5701	190.68965	636.97119	-1066.4802	218.34715	697.01874	-1070.037	237.86098	778.89722	-698.61963	235.83925	646.5639	-695.04712	185.22816	637.44128	-693.37067	199.51321	701.18042	-689.5108	130.56433	1593.1843	-776.14801	241.31349	1576.2306	-787.13837	252.82878	1571.2329	-910.60657	263.03445	1391.217	-858.24597	284.93286	1007.3993	-877.44397	140.6105	1328.327	-872.96588	244.74976	1380.9396	-725.40826	236.58835	1396.67	-987.13495	166.31084	1359.4055	-222.85922	206.92279	1354.8317	-222.57632	153.02277	1338.8903	-130.91322	241.09674	1388.7383	-1500.9366	287.99033	1382.5372	-1500.0796	235.33969	1390.8678	-1591.1129	293.23056	1329.415	-1271.5692	254.92093	1295.9419	-1272.0403	221.5889	1300.8214	-454.27405	180.64786	1278.524	-466.89868	237.80093	1354.3427	-506.38425	201.86534	1372.0056	-536.9212	238.86813	1362.4991	-585.66724	266.29059	1381.937	-1205.9856	256.9892	1383.6558	-1144.3127	216.01349	1385.1815	-1212.5968
149	0.74	133.10866	918.14655	-761.98828	128.73093	918.70337	-984.48041	308.50757	950.11877	-912.38275	307.69537	953.35529	-852.46716	296.80832	966.49213	-882.32721	1270.8363	26.308811	346.55133	1226.4384	26.288109	-1876.951	323.05713	39.835007	-1019.6476	128.16653	43.444168	-1043.3115	165.06671	34.820938	-1113.6542	140.16737	42.697758	-1079.962	326.2482	45.842911	-745.1676	134.3868	46.323071	-736.45422	170.01105	33.381588	-662.79901	143.16161	45.908623	-698.03961	276.6701	72.972198	-778.71411	232.47298	456.95218	-829.0459	218.92859	453.97601	-721.40118	278.7988	69.146591	-700.99664	290.14032	209.64838	-691.47705	313.65799	271.25894	-691.25732	263.20197	268.15698	-684.4447	301.38214	314.36444	-687.10022	275.16592	68.345169	-994.07324	234.89748	446.53668	-935.2854	220.04176	461.293	-1041.172	284.63464	72.267021	-1068.5659	256.74371	319.28226	-1082.6716	307.17743	314.1001	-1077.156	276.29306	256.18808	-1081.2898	240.89655	783.82556	-1060.0056	241.9568	635.05084	-1064.796	190.69855	636.95929	-1066.4512	218.23404	697.13458	-1070.0879	237.88145	778.89014	-698.6181	235.86813	646.53625	-695.03876	185.233	637.44025	-693.37317	199.53461	701.17859	-689.5097	130.5546	1593.1967	-776.16162	241.30234	1576.2344	-787.14752	252.83113	1571.2437	-910.61859	263.04977	1391.212	-858.2406	284.93481	1007.401	-877.4386	140.63123	1328.3252	-872.95837	244.77454	1380.9475	-725.40918	236.60866	1396.6718	-987.12952	166.30794	1359.4275	-222.86818	206.93239	1354.8678	-222.57907	153.02655	1338.9185	-130.90887	241.08105	1388.7365	-1500.9397	287.95929	1382.5375	-1500.0677	235.32077	1390.8738	-1591.118	293.2175	1329.4138	-1271.5582	254.90298	1295.95	-1272.0386	221.61041	1300.8408	-454.26108	180.66808	1278.5364	-466.88715	237.80264	1354.3567	-506.38504	201.88385	1372.0054	-536.91467	238.83836	1362.6763	-585.64227	266.29306	1381.9347	-1205.9813	256.996	1383.6597	-1144.3031	216.002	1385.1808	-1212.5828
150	0.745	133.11906	918.15839	-761.9834	128.74469	918.71069	-984.46802	308.51648	950.11694	-912.37659	307.70566	953.35742	-852.46405	296.82452	966.48376	-882.32904	1270.8457	26.305883	346.4776	1226.4341	26.295542	-1876.9515	323.0575	39.835232	-1019.6534	128.16843	43.442169	-1043.3018	165.06155	34.827347	-1113.6539	140.16545	42.696674	-1079.9586	326.24658	45.848476	-745.17883	134.38065	46.333775	-736.45374	169.97662	33.415237	-662.78467	143.16432	45.915161	-698.03632	276.67828	72.967957	-778.71484	232.50377	456.94678	-829.0365	218.94901	453.97675	-721.39105	278.79797	69.148209	-700.992	290.15811	209.64828	-691.47546	313.72989	271.02936	-691.43567	263.20496	268.14948	-684.44873	301.27972	314.35263	-687.19269	275.16238	68.346222	-994.07178	234.90997	446.53918	-935.28931	220.04208	461.29462	-1041.1722	284.63943	72.267258	-1068.5671	256.754	319.28525	-1082.6682	307.16025	314.0874	-1077.1478	276.29846	256.18268	-1081.2823	240.89081	783.82404	-1060.0168	241.95901	635.04803	-1064.8116	190.69844	636.99103	-1066.4623	218.35779	697.03979	-1070.0334	237.8981	778.89764	-698.62164	235.88152	646.54718	-695.01758	185.23009	637.45001	-693.36835	199.54945	701.18213	-689.50549	130.55087	1593.1937	-776.16089	241.33777	1576.2346	-787.13794	252.83226	1571.2379	-910.62158	263.04733	1391.2158	-858.23969	284.94995	1007.3999	-877.44708	140.65021	1328.3154	-872.94806	244.79642	1380.9504	-725.39893	236.61967	1396.6642	-987.11621	166.30537	1359.4574	-222.86887	206.94154	1354.8868	-222.57391	153.02333	1338.9517	-130.90436	241.05322	1388.7476	-1500.9343	287.95309	1382.5431	-1500.0613	235.29099	1390.8811	-1591.1167	293.20178	1329.4177	-1271.5618	254.88818	1295.9557	-1272.0465	221.61757	1300.8589	-454.25934	180.68413	1278.5513	-466.8829	237.79646	1354.3871	-506.38181	201.89285	1372.0226	-536.90997	238.82506	1362.6908	-585.63403	266.27551	1381.9426	-1205.9883	256.99841	1383.6678	-1144.2994	215.99979	1385.181	-1212.5782
151	0.75	133.13721	918.16125	-761.97266	128.75674	918.71344	-984.45642	308.53036	950.12	-912.3833	307.73587	953.35382	-852.46649	296.85181	966.48334	-882.32758	1270.8333	26.297529	346.51544	1226.4369	26.289917	-1876.953	323.06192	39.840557	-1019.6463	128.15147	43.447659	-1043.3077	165.07001	34.828678	-1113.655	140.16647	42.698128	-1079.9579	326.25006	45.846004	-745.18024	134.39243	46.325954	-736.45758	169.97101	33.427204	-662.78204	143.16472	45.916637	-698.03601	276.67496	72.975067	-778.71777	232.49921	456.95593	-829.03827	218.9633	453.98141	-721.38879	278.79324	69.151741	-700.99481	290.16122	209.65419	-691.47607	313.64594	271.2644	-691.26031	263.20255	268.15234	-684.43378	301.40695	314.35574	-687.09399	275.16608	68.339828	-994.07764	234.91164	446.53333	-935.28601	220.04552	461.29379	-1041.1711	284.63861	72.265518	-1068.5623	256.74789	319.27945	-1082.6619	307.1792	314.10233	-1077.1611	276.29224	256.18628	-1081.2938	240.90123	783.82513	-1060.0121	241.96085	635.03748	-1064.8018	190.69644	636.97107	-1066.4452	218.35225	697.03192	-1070.0288	237.92369	778.91052	-698.62402	235.88019	646.53333	-695.01489	185.25273	637.43951	-693.36487	199.57744	701.18848	-689.49719	130.56042	1593.192	-776.1507	241.32385	1576.2444	-787.13483	252.83513	1571.2378	-910.62885	263.056	1391.214	-858.24347	284.97217	1007.4043	-877.43207	140.6667	1328.3113	-872.94672	244.81116	1380.9463	-725.3941	236.62561	1396.6632	-987.11151	166.32196	1359.4878	-222.87146	206.95348	1354.9105	-222.57014	153.03476	1338.991	-130.89651	241.03587	1388.7598	-1500.9282	287.92163	1382.55	-1500.0656	235.26331	1390.8873	-1591.1199	293.19321	1329.4156	-1271.5674	254.87537	1295.9562	-1272.0349	221.6348	1300.8665	-454.24585	180.70068	1278.5562	-466.87915	237.80164	1354.4032	-506.37531	201.88304	1372.0303	-536.91211	238.94922	1362.4004	-585.59766	266.28394	1381.942	-1205.9843	256.99954	1383.6655	-1144.3029	216.00081	1385.182	-1212.5607
152	0.755	133.15871	918.16229	-761.96838	128.77115	918.7157	-984.45428	308.54837	950.11523	-912.37561	307.74774	953.34668	-852.46954	296.86038	966.48279	-882.328	1270.8518	26.323309	346.48395	1226.4165	26.294104	-1876.9441	323.05737	39.841679	-1019.6537	128.15894	43.436401	-1043.3069	165.0081	34.987377	-1113.7742	140.16934	42.696259	-1079.9595	326.24881	45.849182	-745.17413	134.38786	46.328831	-736.4519	169.97586	33.424728	-662.78528	143.15973	45.922554	-698.03833	276.67319	72.97332	-778.71014	232.50409	456.96075	-829.0387	218.96925	453.97971	-721.38281	278.80276	69.150345	-700.99603	290.15698	209.64996	-691.47211	313.66327	271.23346	-691.25726	263.24078	268.16205	-684.43158	301.42538	314.34521	-687.0918	275.15778	68.343437	-994.07935	234.90974	446.54108	-935.28082	220.04723	461.29233	-1041.1674	284.64355	72.270142	-1068.559	256.74884	319.26959	-1082.6614	307.17126	314.09213	-1077.1536	276.3024	256.18323	-1081.2914	240.91972	783.82526	-1060.0181	241.96909	635.05627	-1064.8048	190.69649	636.98041	-1066.4573	218.33823	697.02594	-1070.037	237.94342	778.90967	-698.62677	235.89577	646.552	-695.00879	185.25121	637.44183	-693.35602	199.58348	701.18402	-689.48407	130.5775	1593.1801	-776.14551	241.32837	1576.25	-787.14136	252.8466	1571.2314	-910.63019	263.07291	1391.2147	-858.22729	284.98154	1007.4034	-877.43408	140.68175	1328.3086	-872.94263	244.81781	1380.9448	-725.39447	236.63252	1396.6622	-987.11053	166.31737	1359.5181	-222.87778	206.9614	1354.9363	-222.56607	153.03984	1339.0177	-130.89476	241.01601	1388.7799	-1500.9287	287.9054	1382.5524	-1500.0682	235.24916	1390.903	-1591.0997	293.19229	1329.4193	-1271.574	254.86589	1295.9606	-1272.0435	221.64487	1300.8802	-454.24396	180.71652	1278.5664	-466.8718	237.8	1354.4166	-506.37692	201.87265	1372.0343	-536.89606	238.91068	1362.5618	-585.56226	266.28687	1381.958	-1205.9878	257.00281	1383.6704	-1144.2975	216.01509	1385.1884	-1212.5614
